Crispy Extrabold.ufo
<glyph name="period" format="2">
  <advance width="552"/>
  <unicode hex="002E"/>
  <outline>
    <contour>
      <point x="427" y="0" type="line" identifier="1m237t4hyw"/>
      <point x="477" y="88" type="line" identifier="v7N4yg5XNk"/>
      <point x="477" y="388" type="line"/>
      <point x="105" y="388" type="line" identifier="zfocDyDTCM"/>
      <point x="55" y="300" type="line"/>
      <point x="55" y="0" type="line" identifier="S4rO5KuHiL"/>
    </contour>
  </outline>
</glyph>
<glyph name="four" format="2">
  <advance width="1674"/>
  <unicode hex="0034"/>
  <outline>
    <contour>
      <point x="1071" y="0" type="line"/>
      <point x="1485" y="0" type="line"/>
      <point x="1485" y="606" type="line"/>
      <point x="1599" y="606" type="line"/>
      <point x="1599" y="955" type="line"/>
      <point x="1485" y="955" type="line"/>
      <point x="1485" y="1600" type="line"/>
      <point x="1071" y="1600" type="line"/>
      <point x="1071" y="955" type="line"/>
      <point x="489" y="955" type="line"/>
      <point x="489" y="1020" type="line"/>
      <point x="489" y="1597" type="line"/>
      <point x="75" y="1597" type="line"/>
      <point x="75" y="1019" type="line"/>
      <point x="75" y="606" type="line"/>
      <point x="1071" y="606" type="line"/>
    </contour>
  </outline>
</glyph>
<glyph name="six" format="2">
  <advance width="1635"/>
  <unicode hex="0036"/>
  <outline>
    <contour>
      <point x="75" y="0" type="line" identifier="uiw6aBUf4P"/>
      <point x="1560" y="0" type="line" identifier="jtYkxiUX6G"/>
      <point x="1560" y="942" type="line" identifier="2G5L37c87I"/>
      <point x="489" y="942" type="line"/>
      <point x="489" y="1135" type="line"/>
      <point x="560" y="1257" type="line"/>
      <point x="1145" y="1257" type="line"/>
      <point x="1145" y="1049" type="line"/>
      <point x="1559" y="1049" type="line" identifier="Wuidbv6mUe"/>
      <point x="1559" y="1600" type="line" identifier="oGvEEuxnYv"/>
      <point x="243" y="1600" type="line" identifier="xR3pEHbMJx"/>
      <point x="75" y="1177" type="line" identifier="KnMArb0tv8"/>
    </contour>
    <contour>
      <point x="1146" y="599" type="line"/>
      <point x="1146" y="343" type="line"/>
      <point x="489" y="343" type="line"/>
      <point x="489" y="599" type="line"/>
    </contour>
  </outline>
</glyph>
<glyph name="eight" format="2">
  <advance width="1699"/>
  <unicode hex="0038"/>
  <outline>
    <contour>
      <point x="1106" y="628" type="line"/>
      <point x="1210" y="543" type="line"/>
      <point x="1210" y="343" type="line"/>
      <point x="489" y="343" type="line"/>
      <point x="489" y="541" type="line"/>
      <point x="593" y="628" type="line"/>
    </contour>
    <contour>
      <point x="1487" y="799" type="line"/>
      <point x="1487" y="801" type="line"/>
      <point x="1620" y="951" type="line"/>
      <point x="1620" y="1600" type="line"/>
      <point x="78" y="1600" type="line"/>
      <point x="78" y="951" type="line"/>
      <point x="213" y="801" type="line"/>
      <point x="213" y="799" type="line"/>
      <point x="75" y="646" type="line"/>
      <point x="75" y="0" type="line"/>
      <point x="1624" y="0" type="line"/>
      <point x="1624" y="646" type="line"/>
    </contour>
    <contour>
      <point x="593" y="972" type="line"/>
      <point x="492" y="1055" type="line"/>
      <point x="492" y="1257" type="line"/>
      <point x="1207" y="1257" type="line"/>
      <point x="1206" y="1055" type="line"/>
      <point x="1106" y="972" type="line"/>
    </contour>
  </outline>
</glyph>
<glyph name="B" format="2">
  <advance width="1681"/>
  <unicode hex="0042"/>
  <outline>
    <contour>
      <point x="105" y="0" type="line" identifier="hvY9r8RmLr"/>
      <point x="1438" y="0" type="line" identifier="9QFpw7nfq7"/>
      <point x="1607" y="439" type="line"/>
      <point x="1607" y="968" type="line" identifier="543PerILpr"/>
      <point x="1450" y="968" type="line" identifier="zhomauHW30"/>
      <point x="1493" y="1082" type="line"/>
      <point x="1493" y="1600" type="line" identifier="FaP204GrdB"/>
      <point x="105" y="1600" type="line" identifier="JEev70GAj6"/>
    </contour>
    <contour>
      <point x="519" y="345" type="line" identifier="jaMSiLrCua"/>
      <point x="519" y="627" type="line" identifier="XSrxNd2axx"/>
      <point x="1193" y="627" type="line" identifier="lsRGatjQja"/>
      <point x="1193" y="478" type="line"/>
      <point x="1116" y="345" type="line" identifier="xhlDJ3CjD5"/>
    </contour>
    <contour>
      <point x="519" y="967" type="line" identifier="By7dfMihfe"/>
      <point x="519" y="1255" type="line" identifier="1p5hKrurVy"/>
      <point x="1110" y="1255" type="line" identifier="Qby8aMtF2X"/>
      <point x="1110" y="1057" type="line"/>
      <point x="1080" y="967" type="line" identifier="xpxyvIzPoc"/>
    </contour>
  </outline>
</glyph>
<glyph name="O" format="2">
  <advance width="1653"/>
  <unicode hex="004F"/>
  <outline>
    <contour>
      <point x="1578" y="440" type="line" identifier="ob8US3C311"/>
      <point x="1578" y="1600" type="line" identifier="c9brEFyXXA"/>
      <point x="243" y="1600" type="line" identifier="a4Ql951bxG"/>
      <point x="75" y="1155" type="line" identifier="kbL68Qh2zr"/>
      <point x="75" y="0" type="line" identifier="U6WibAQAUl"/>
      <point x="1410" y="0" type="line" identifier="dfgNHTgBfR"/>
    </contour>
    <contour>
      <point x="1164" y="481" type="line" identifier="SnrsQD5TLy"/>
      <point x="1092" y="349" type="line" identifier="jjd5iRDXWT"/>
      <point x="489" y="349" type="line" identifier="YbQKHpAtYn"/>
      <point x="489" y="1116" type="line" identifier="vdfGLkskOQ"/>
      <point x="560" y="1251" type="line" identifier="qXlVxK5ShE"/>
      <point x="1164" y="1251" type="line" identifier="g70r2r6DwY"/>
    </contour>
  </outline>
</glyph>
<glyph name="Q" format="2">
  <advance width="1683"/>
  <unicode hex="0051"/>
  <outline>
    <contour>
      <point x="1578" y="1600" type="line" identifier="c9brEFyXXA"/>
      <point x="243" y="1600" type="line" identifier="a4Ql951bxG"/>
      <point x="75" y="1158" type="line" identifier="kbL68Qh2zr"/>
      <point x="75" y="0" type="line" identifier="U6WibAQAUl"/>
      <point x="1578" y="0" type="line" identifier="dfgNHTgBfR"/>
    </contour>
    <contour>
      <point x="1164" y="349" type="line" identifier="jjd5iRDXWT"/>
      <point x="489" y="349" type="line" identifier="YbQKHpAtYn"/>
      <point x="489" y="1118" type="line" identifier="vdfGLkskOQ"/>
      <point x="556" y="1251" type="line" identifier="qXlVxK5ShE"/>
      <point x="1164" y="1251" type="line" identifier="g70r2r6DwY"/>
    </contour>
    <contour>
      <point x="683" y="-277" type="line"/>
      <point x="991" y="-277" type="line"/>
      <point x="991" y="1" type="line"/>
      <point x="683" y="1" type="line"/>
    </contour>
  </outline>
</glyph>
<glyph name="S" format="2">
  <advance width="1597"/>
  <unicode hex="0053"/>
  <outline>
    <contour>
      <point x="75" y="0" type="line" identifier="09VlJ0BjUX"/>
      <point x="1354" y="0" type="line" identifier="EagWihqFM8"/>
      <point x="1522" y="432" type="line"/>
      <point x="1522" y="979" type="line" identifier="KfNuQA7eZe"/>
      <point x="487" y="979" type="line" identifier="At364YZFEy"/>
      <point x="487" y="1104" type="line"/>
      <point x="562" y="1271" type="line"/>
      <point x="1103" y="1271" type="line" identifier="3ZUkG35meB"/>
      <point x="1103" y="1093" type="line" identifier="DTOJhFIl15"/>
      <point x="1517" y="1093" type="line" identifier="9KDcrfQ5Ui"/>
      <point x="1517" y="1600" type="line" identifier="SaF9ojRFrW"/>
      <point x="249" y="1600" type="line"/>
      <point x="77" y="1144" type="line"/>
      <point x="77" y="623" type="line" identifier="3sQ8t8BZ6b"/>
      <point x="1108" y="623" type="line" identifier="yiV6OCBLHg"/>
      <point x="1108" y="471" type="line"/>
      <point x="1030" y="335" type="line" identifier="9kdl9SYsn8"/>
      <point x="489" y="335" type="line" identifier="yZDWuX8LLe"/>
      <point x="489" y="517" type="line" identifier="jYb9001DTm"/>
      <point x="75" y="517" type="line" identifier="ho4DrS0rdW"/>
    </contour>
  </outline>
</glyph>
<glyph name="X" format="2">
  <advance width="1647"/>
  <unicode hex="0058"/>
  <outline>
    <contour>
      <point x="1050" y="623" type="line"/>
      <point x="1158" y="555" type="line"/>
      <point x="1158" y="0" type="line"/>
      <point x="1572" y="0" type="line"/>
      <point x="1572" y="653" type="line"/>
      <point x="1422" y="795" type="line"/>
      <point x="1422" y="798" type="line"/>
      <point x="1568" y="798" type="line"/>
      <point x="1568" y="1600" type="line"/>
      <point x="1154" y="1600" type="line"/>
      <point x="1154" y="972" type="line"/>
      <point x="1063" y="972" type="line"/>
      <point x="580" y="972" type="line"/>
      <point x="493" y="1026" type="line"/>
      <point x="493" y="1600" type="line"/>
      <point x="79" y="1600" type="line"/>
      <point x="79" y="932" type="line"/>
      <point x="225" y="797" type="line"/>
      <point x="225" y="795" type="line"/>
      <point x="75" y="795" type="line"/>
      <point x="75" y="0" type="line"/>
      <point x="489" y="0" type="line"/>
      <point x="489" y="623" type="line"/>
      <point x="593" y="623" type="line"/>
    </contour>
  </outline>
</glyph>
<glyph name="Z" format="2">
  <advance width="1597"/>
  <unicode hex="005A"/>
  <outline>
    <contour>
      <point x="75" y="0" type="line"/>
      <point x="1520" y="0" type="line" identifier="pzdvPTirLJ"/>
      <point x="1520" y="600" type="line" identifier="91SxUS0iwG"/>
      <point x="1106" y="600" type="line"/>
      <point x="1106" y="343" type="line"/>
      <point x="489" y="343" type="line"/>
      <point x="489" y="488" type="line"/>
      <point x="1520" y="1140" type="line" identifier="yyb1NCCI5w"/>
      <point x="1520" y="1600" type="line" identifier="5FogYRSgkk"/>
      <point x="91" y="1600" type="line" identifier="svlFvrau4c"/>
      <point x="91" y="1049" type="line" identifier="LQ9fBsTy9K"/>
      <point x="471" y="1049" type="line"/>
      <point x="471" y="1257" type="line"/>
      <point x="1106" y="1257" type="line"/>
      <point x="1106" y="1181" type="line"/>
      <point x="75" y="540" type="line" identifier="teVKnpBcVb"/>
    </contour>
  </outline>
</glyph>
<glyph name="C.wide" format="2">
  <advance width="1619"/>
  <outline>
    <contour>
      <point x="100" y="0" type="line" identifier="7lPhzTnk2Z"/>
      <point x="1544" y="0" type="line" identifier="qJVLZGnkwh"/>
      <point x="1544" y="349" type="line" identifier="Y750RHTvDj"/>
      <point x="514" y="349" type="line" identifier="L2LsGnXiZ2"/>
      <point x="514" y="1013" type="line" identifier="sUWsr03vF4"/>
      <point x="594" y="1251" type="line" identifier="dbOUe6OhxL"/>
      <point x="1543" y="1251" type="line" identifier="5BjRbcud80"/>
      <point x="1543" y="1600" type="line" identifier="9eJelv8BOw"/>
      <point x="267" y="1600" type="line" identifier="lfZev3ICaC"/>
      <point x="100" y="1061" type="line" identifier="V1EWIdPahq"/>
    </contour>
  </outline>
</glyph>
<glyph name="I.narrow" format="2">
  <advance width="625"/>
  <outline>
    <contour>
      <point x="520" y="0" type="line" identifier="1m237t4hyw"/>
      <point x="520" y="1600" type="line" identifier="v7N4yg5XNk"/>
      <point x="105" y="1600" type="line" identifier="zfocDyDTCM"/>
      <point x="105" y="0" type="line" identifier="S4rO5KuHiL"/>
    </contour>
  </outline>
</glyph>
<glyph name="L.wide" format="2">
  <advance width="1476"/>
  <outline>
    <contour>
      <point x="105" y="0" type="line" identifier="XkJNfQlnnt"/>
      <point x="1401" y="0" type="line" identifier="82EXZEgt46"/>
      <point x="1401" y="349" type="line" identifier="cqpSxwFiM3"/>
      <point x="519" y="349" type="line" identifier="MbxRZRd8vz"/>
      <point x="519" y="1600" type="line" identifier="lYiaKSKITt"/>
      <point x="105" y="1600" type="line" identifier="XFf4mMUzYo"/>
    </contour>
  </outline>
</glyph>
<glyph name="M.narrow" format="2">
  <advance width="2278"/>
  <outline>
    <contour>
      <point x="1759" y="0" type="line" smooth="yes" identifier="12Pyby1xY2"/>
      <point x="2173" y="0" type="line" smooth="yes" identifier="5LJg4ajoG6"/>
      <point x="2173" y="1600" type="line" smooth="yes" identifier="ZqTZqAY3uY"/>
      <point x="245" y="1600" type="line" smooth="yes" identifier="R4lklfJsHA"/>
      <point x="75" y="1157" type="line" smooth="yes" identifier="7g7f8Wu7K4"/>
      <point x="75" y="0" type="line" smooth="yes" identifier="RTOJW56qXy"/>
      <point x="489" y="0" type="line" identifier="JfSFAkWGZC"/>
      <point x="489" y="1052" type="line" smooth="yes" identifier="WWvGwSpq0g"/>
      <point x="577" y="1251" type="line" smooth="yes" identifier="oee4nqI8Wl"/>
      <point x="916" y="1251" type="line" identifier="Ljn2lpvpG8"/>
      <point x="916" y="13" type="line" smooth="yes"/>
      <point x="1330" y="13" type="line"/>
      <point x="1330" y="1251" type="line" identifier="GlWB6PG54Z"/>
      <point x="1759" y="1251" type="line" identifier="iqeTRv7HXg"/>
    </contour>
  </outline>
</glyph>
<glyph name="P.wide" format="2">
  <advance width="1613"/>
  <outline>
    <contour>
      <point x="76" y="0" type="line" identifier="EG08jqU5fb"/>
      <point x="490" y="0" type="line" identifier="osRzIFK2Cu"/>
      <point x="490" y="526" type="line" identifier="hIFVovVRwe"/>
      <point x="1548" y="526" type="line" identifier="Tt6D8zYZmU"/>
      <point x="1548" y="1600" type="line" identifier="6xW04auDFu"/>
      <point x="76" y="1600" type="line" identifier="eETO5GBD5v"/>
    </contour>
    <contour>
      <point x="490" y="884" type="line" identifier="PIBVN1PGv1"/>
      <point x="490" y="1251" type="line" identifier="IZIZQr2gYJ"/>
      <point x="1134" y="1251" type="line" identifier="2c4LCF1E1R"/>
      <point x="1134" y="884" type="line" identifier="1WCnzth1GX"/>
    </contour>
  </outline>
</glyph>
<glyph name="R.wide" format="2">
  <advance width="1634"/>
  <outline>
    <contour>
      <point x="1118" y="0" type="line"/>
      <point x="1532" y="0" type="line"/>
      <point x="1348" y="625" type="line"/>
      <point x="963" y="625" type="line"/>
    </contour>
    <contour>
      <point x="105" y="0" type="line" identifier="EG08jqU5fb"/>
      <point x="519" y="0" type="line" identifier="osRzIFK2Cu"/>
      <point x="519" y="609" type="line" identifier="hIFVovVRwe"/>
      <point x="1537" y="609" type="line" identifier="Tt6D8zYZmU"/>
      <point x="1537" y="1600" type="line" identifier="6xW04auDFu"/>
      <point x="105" y="1600" type="line" identifier="eETO5GBD5v"/>
    </contour>
    <contour>
      <point x="519" y="958" type="line" identifier="PIBVN1PGv1"/>
      <point x="519" y="1251" type="line" identifier="IZIZQr2gYJ"/>
      <point x="1123" y="1251" type="line" identifier="2c4LCF1E1R"/>
      <point x="1123" y="958" type="line" identifier="1WCnzth1GX"/>
    </contour>
  </outline>
</glyph>
<glyph name="S.wideskinny" format="2">
  <advance width="1604"/>
  <outline>
    <contour>
      <point x="76" y="0" type="line" identifier="09VlJ0BjUX"/>
      <point x="1362" y="0" type="line" identifier="EagWihqFM8"/>
      <point x="1529" y="430" type="line"/>
      <point x="1529" y="970" type="line" identifier="KfNuQA7eZe"/>
      <point x="486" y="970" type="line" identifier="At364YZFEy"/>
      <point x="486" y="1103" type="line"/>
      <point x="565" y="1270" type="line"/>
      <point x="1530" y="1270" type="line" identifier="3ZUkG35meB"/>
      <point x="1530" y="1600" type="line" identifier="SaF9ojRFrW"/>
      <point x="249" y="1600" type="line"/>
      <point x="76" y="1144" type="line"/>
      <point x="76" y="627" type="line" identifier="3sQ8t8BZ6b"/>
      <point x="1115" y="627" type="line" identifier="yiV6OCBLHg"/>
      <point x="1115" y="471" type="line"/>
      <point x="1038" y="335" type="line" identifier="9kdl9SYsn8"/>
      <point x="76" y="335" type="line" identifier="yZDWuX8LLe"/>
    </contour>
  </outline>
</glyph>
<glyph name="U.alt" format="2">
  <advance width="1630"/>
  <outline>
    <contour>
      <point x="1120" y="1600" type="line" smooth="yes"/>
      <point x="1120" y="349" type="line"/>
      <point x="487" y="349" type="line" smooth="yes"/>
      <point x="487" y="1600" type="line"/>
      <point x="74" y="1600" type="line" smooth="yes"/>
      <point x="74" y="0" type="line" smooth="yes"/>
      <point x="1534" y="0" type="line" smooth="yes"/>
      <point x="1534" y="1600" type="line" smooth="yes"/>
    </contour>
  </outline>
</glyph>
<glyph name="Y.wide" format="2">
  <advance width="1702"/>
  <outline>
    <contour>
      <point x="119" y="0" type="line"/>
      <point x="1597" y="0" type="line" identifier="oOtn61SmRY"/>
      <point x="1597" y="1600" type="line" identifier="8OglXgblhr"/>
      <point x="1183" y="1600" type="line" identifier="db0bPhBdaU"/>
      <point x="1183" y="983" type="line" identifier="MTAeavIVWY"/>
      <point x="518" y="983" type="line" identifier="lggLiivmLt"/>
      <point x="518" y="1600" type="line" identifier="UPaHY3UudR"/>
      <point x="105" y="1600" type="line" identifier="ZnCDQVdtyD"/>
      <point x="105" y="638" type="line" identifier="uqAJBjDIOT"/>
      <point x="1183" y="638" type="line" identifier="7JgTtdb0jg"/>
      <point x="1183" y="345" type="line"/>
      <point x="119" y="345" type="line"/>
    </contour>
  </outline>
</glyph>
<glyph name="Z.wide" format="2">
  <advance width="1639"/>
  <outline>
    <contour>
      <point x="74" y="0" type="line"/>
      <point x="1557" y="0" type="line" identifier="pzdvPTirLJ"/>
      <point x="1557" y="343" type="line"/>
      <point x="498" y="343" type="line"/>
      <point x="498" y="497" type="line"/>
      <point x="1562" y="1210" type="line" identifier="yyb1NCCI5w"/>
      <point x="1562" y="1600" type="line" identifier="5FogYRSgkk"/>
      <point x="80" y="1600" type="line" identifier="svlFvrau4c"/>
      <point x="80" y="1257" type="line"/>
      <point x="1125" y="1257" type="line"/>
      <point x="1125" y="1244" type="line"/>
      <point x="74" y="545" type="line" identifier="teVKnpBcVb"/>
    </contour>
  </outline>
</glyph>
<glyph name="five.wide" format="2">
  <advance width="1632"/>
  <outline>
    <contour>
      <point x="76" y="0" type="line" identifier="09VlJ0BjUX"/>
      <point x="1557" y="0" type="line" identifier="EagWihqFM8"/>
      <point x="1557" y="969" type="line" identifier="KfNuQA7eZe"/>
      <point x="489" y="969" type="line" identifier="At364YZFEy"/>
      <point x="489" y="1255" type="line" identifier="BcuLfvaQKC"/>
      <point x="1557" y="1255" type="line" identifier="3ZUkG35meB"/>
      <point x="1557" y="1600" type="line" identifier="SaF9ojRFrW"/>
      <point x="75" y="1600" type="line" identifier="F4sQEYelA8"/>
      <point x="75" y="628" type="line" identifier="3sQ8t8BZ6b"/>
      <point x="1144" y="628" type="line" identifier="yiV6OCBLHg"/>
      <point x="1144" y="345" type="line" identifier="9kdl9SYsn8"/>
      <point x="76" y="345" type="line" identifier="yZDWuX8LLe"/>
    </contour>
  </outline>
</glyph>
<glyph name="nine.wide" format="2">
  <advance width="1661"/>
  <outline>
    <contour>
      <point x="113" y="0" type="line" identifier="oGvEEuxnYv"/>
      <point x="1622" y="0" type="line" identifier="xR3pEHbMJx"/>
      <point x="1622" y="1600" type="line" identifier="uiw6aBUf4P"/>
      <point x="112" y="1600" type="line" identifier="jtYkxiUX6G"/>
      <point x="112" y="630" type="line" identifier="2G5L37c87I"/>
      <point x="1208" y="630" type="line"/>
      <point x="1208" y="345" type="line"/>
      <point x="113" y="345" type="line"/>
    </contour>
    <contour>
      <point x="526" y="970" type="line"/>
      <point x="526" y="1255" type="line"/>
      <point x="1208" y="1255" type="line"/>
      <point x="1208" y="970" type="line"/>
    </contour>
  </outline>
</glyph>
<glyph name="one.narrow" format="2">
  <advance width="1030"/>
  <outline>
    <contour>
      <point x="925" y="0" type="line" identifier="5nmxQXofSG"/>
      <point x="925" y="1600" type="line" identifier="4rjIeWbSbx"/>
      <point x="75" y="1600" type="line"/>
      <point x="75" y="1251" type="line"/>
      <point x="511" y="1251" type="line"/>
      <point x="511" y="0" type="line"/>
    </contour>
  </outline>
</glyph>
<glyph name="three.wide" format="2">
  <advance width="1729"/>
  <outline>
    <contour>
      <point x="96" y="0" type="line" identifier="O9abUc1nmN"/>
      <point x="1624" y="0" type="line" identifier="kMJYMTfXCq"/>
      <point x="1624" y="953" type="line" identifier="su2XmdS8e8"/>
      <point x="1508" y="953" type="line" identifier="JQaOzDQqlF"/>
      <point x="1508" y="1600" type="line" identifier="xg8x2Ki40p"/>
      <point x="81" y="1600" type="line" identifier="pE1XSRiy68"/>
      <point x="81" y="1255" type="line" identifier="7ogBYufWpl"/>
      <point x="1094" y="1255" type="line" identifier="RHLvSX2Jv6"/>
      <point x="1094" y="955" type="line" identifier="iic1IBkDqp"/>
      <point x="259" y="955" type="line" identifier="lRLJEhXMlO"/>
      <point x="259" y="614" type="line" identifier="8aKgEELrVU"/>
      <point x="1210" y="614" type="line" identifier="Dm8zjmbhNr"/>
      <point x="1210" y="345" type="line" identifier="xv9CFHiFgB"/>
      <point x="96" y="345" type="line" identifier="YajKQV3MHP"/>
    </contour>
  </outline>
</glyph>
<glyph name="two.wide" format="2">
  <advance width="1582"/>
  <outline>
    <contour>
      <point x="88" y="0" type="line"/>
      <point x="1545" y="0" type="line" identifier="pzdvPTirLJ"/>
      <point x="1544" y="345" type="line"/>
      <point x="502" y="345" type="line"/>
      <point x="502" y="620" type="line"/>
      <point x="1550" y="620" type="line" identifier="yyb1NCCI5w"/>
      <point x="1550" y="1600" type="line" identifier="5FogYRSgkk"/>
      <point x="93" y="1600" type="line" identifier="svlFvrau4c"/>
      <point x="93" y="1255" type="line"/>
      <point x="1136" y="1255" type="line"/>
      <point x="1136" y="960" type="line"/>
      <point x="88" y="960" type="line" identifier="teVKnpBcVb"/>
    </contour>
  </outline>
</glyph>
